<svg xmlns="http://www.w3.org/2000/svg" version="1.1" xmlns:xlink="http://www.w3.org/1999/xlink" width="512" height="512" x="0" y="0" viewBox="0 0 512 512" style="enable-background:new 0 0 512 512" xml:space="preserve" class="">
  <g transform="matrix(1,0,0,1,0,54.99999999999997)">
    <path xmlns="http://www.w3.org/2000/svg" d="m506.355469 56.917969-51.273438-51.273438c-3.640625-3.640625-8.480469-5.644531-13.625-5.644531h-277.699219c-10.625 0-19.269531 8.644531-19.269531 19.269531v132.726563c0 4.144531 3.359375 7.503906 7.507813 7.503906h144.972656c1.136719 0 2.203125.441406 3.007812 1.246094l51.277344 51.277344c.804688.804687 1.246094 1.871093 1.246094 3.007812v13.8125c0 4.144531 3.359375 7.507812 7.503906 7.507812h132.726563c10.625 0 19.269531-8.644531 19.269531-19.269531v-146.539062c0-5.144531-2.003906-9.984375-5.644531-13.625zm0 0" fill="#ea7f87" data-original="#ea7f87" class=""></path>
    <path xmlns="http://www.w3.org/2000/svg" d="m192.027344 171.175781v-106c0-9.742187 7.894531-17.636719 17.636718-17.636719h154.714844c9.742188 0 17.636719 7.894532 17.636719 17.636719v106c0 9.738281-7.894531 17.636719-17.636719 17.636719h-154.714844c-9.742187 0-17.636718-7.898438-17.636718-17.636719zm0 0" fill="#fff692" data-original="#fff692" class=""></path>
    <path xmlns="http://www.w3.org/2000/svg" d="m382.015625 141.648438h-87.488281v-15.96875h87.488281v-15.011719h-87.488281v-15.964844h87.488281v-15.015625h-87.488281v-32.148438h-15.011719v32.148438h-87.488281v15.015625h87.488281v15.964844h-87.488281v15.011719h87.488281v15.96875h-87.488281v15.011718h87.488281v32.152344h15.011719v-32.152344h87.488281zm0 0" fill="#fff263" data-original="#fff263" class=""></path>
    <path xmlns="http://www.w3.org/2000/svg" d="m304.402344 162.09375h-34.757813c-4.5 0-8.144531-3.644531-8.144531-8.144531v-71.546875c0-4.5 3.644531-8.144532 8.144531-8.144532h34.757813c4.496094 0 8.144531 3.644532 8.144531 8.144532v71.546875c0 4.5-3.648437 8.144531-8.144531 8.144531zm0 0" fill="#fffbd0" data-original="#fffbd0" class=""></path>
    <path xmlns="http://www.w3.org/2000/svg" d="m364.378906 47.539062h-22.398437v103.621094c0 9.738282-7.894531 17.636719-17.632813 17.636719h-132.320312v2.378906c0 9.742188 7.894531 17.636719 17.636718 17.636719h154.714844c9.738282 0 17.636719-7.894531 17.636719-17.636719v-106c0-9.742187-7.894531-17.636719-17.636719-17.636719zm0 0" fill="#fff263" data-original="#fff263" class=""></path>
    <g xmlns="http://www.w3.org/2000/svg" fill="#ffea06">
      <path d="m279.515625 168.792969h15.011719v20.019531h-15.011719zm0 0" fill="#ffea06" data-original="#ffea06" class=""></path>
      <path d="m341.984375 151.160156c0 1.921875-.308594 3.769532-.878906 5.5h40.910156v-15.011718h-40.03125zm0 0" fill="#ffea06" data-original="#ffea06" class=""></path>
      <path d="m341.984375 79.6875h40.03125v15.015625h-40.03125zm0 0" fill="#ffea06" data-original="#ffea06" class=""></path>
      <path d="m341.984375 110.667969h40.03125v15.011719h-40.03125zm0 0" fill="#ffea06" data-original="#ffea06" class=""></path>
    </g>
    <path xmlns="http://www.w3.org/2000/svg" d="m506.355469 56.917969-51.273438-51.273438c-3.640625-3.640625-8.480469-5.644531-13.625-5.644531h-12.035156l36.902344 36.902344c3.640625 3.640625 5.644531 8.476562 5.644531 13.625v146.539062c0 10.625-8.644531 19.269532-19.269531 19.269532h-100.199219v12.507812c0 4.144531 3.359375 7.507812 7.503906 7.507812h132.726563c10.625 0 19.269531-8.644531 19.269531-19.269531v-146.539062c0-5.144531-2.003906-9.984375-5.644531-13.625zm0 0" fill="#e5646e" data-original="#e5646e" class=""></path>
    <path xmlns="http://www.w3.org/2000/svg" d="m361.867188 201.410156-51.277344-51.277344c-3.636719-3.640624-8.476563-5.644531-13.621094-5.644531h-277.699219c-10.625 0-19.269531 8.644531-19.269531 19.269531v197.8125c0 10.625 8.644531 19.269532 19.269531 19.269532h328.972657c10.625 0 19.269531-8.644532 19.269531-19.269532v-146.539062c0-5.144531-2.003907-9.984375-5.644531-13.621094zm0 0" fill="#24d3b5" data-original="#24d3b5" class=""></path>
    <path xmlns="http://www.w3.org/2000/svg" d="m361.867188 201.410156-51.277344-51.277344c-3.636719-3.640624-8.476563-5.644531-13.621094-5.644531h-12.035156l36.902344 36.902344c3.636718 3.640625 5.640624 8.480469 5.640624 13.625v146.539063c0 10.625-8.640624 19.265624-19.265624 19.265624h-308.210938v.75c0 10.625 8.644531 19.269532 19.269531 19.269532h328.972657c10.625 0 19.269531-8.644532 19.269531-19.269532v-146.539062c0-5.144531-2.003907-9.984375-5.644531-13.621094zm0 0" fill="#20b7a1" data-original="#20b7a1" class=""></path>
    <path xmlns="http://www.w3.org/2000/svg" d="m47.539062 315.664062v-106c0-9.742187 7.894532-17.636718 17.636719-17.636718h154.714844c9.742187 0 17.636719 7.894531 17.636719 17.636718v106c0 9.742188-7.894532 17.636719-17.636719 17.636719h-154.714844c-9.742187 0-17.636719-7.894531-17.636719-17.636719zm0 0" fill="#fff692" data-original="#fff692" class=""></path>
    <path xmlns="http://www.w3.org/2000/svg" d="m237.527344 286.136719h-87.488282v-15.964844h87.488282v-15.011719h-87.488282v-15.96875h87.488282v-15.011718h-87.488282v-32.152344h-15.011718v32.152344h-87.488282v15.011718h87.488282v15.96875h-87.488282v15.011719h87.488282v15.964844h-87.488282v15.011719h87.488282v32.152343h15.011718v-32.152343h87.488282zm0 0" fill="#fff263" data-original="#fff263" class=""></path>
    <path xmlns="http://www.w3.org/2000/svg" d="m159.910156 306.585938h-34.757812c-4.496094 0-8.144532-3.648438-8.144532-8.148438v-71.546875c0-4.5 3.648438-8.144531 8.144532-8.144531h34.757812c4.5 0 8.148438 3.648437 8.148438 8.144531v71.546875c0 4.5-3.648438 8.148438-8.148438 8.148438zm0 0" fill="#fffbd0" data-original="#fffbd0" class=""></path>
    <path xmlns="http://www.w3.org/2000/svg" d="m219.890625 192.027344h-22.398437v103.621094c0 9.738281-7.894532 17.636718-17.636719 17.636718h-132.316407v2.378906c0 9.742188 7.894532 17.636719 17.636719 17.636719h154.714844c9.738281 0 17.636719-7.894531 17.636719-17.636719v-106c0-9.742187-7.894532-17.636718-17.636719-17.636718zm0 0" fill="#fff263" data-original="#fff263" class=""></path>
    <path xmlns="http://www.w3.org/2000/svg" d="m135.027344 313.285156h15.011718v20.015625h-15.011718zm0 0" fill="#ffea06" data-original="#ffea06" class=""></path>
    <path xmlns="http://www.w3.org/2000/svg" d="m197.492188 295.648438c0 1.921874-.304688 3.769531-.875 5.5h40.910156v-15.011719h-40.035156zm0 0" fill="#ffea06" data-original="#ffea06" class=""></path>
    <path xmlns="http://www.w3.org/2000/svg" d="m197.492188 224.179688h40.035156v15.011718h-40.035156zm0 0" fill="#ffea06" data-original="#ffea06" class=""></path>
    <path xmlns="http://www.w3.org/2000/svg" d="m197.492188 255.160156h40.035156v15.011719h-40.035156zm0 0" fill="#ffea06" data-original="#ffea06" class=""></path>
  </g>
</svg>
