<svg xmlns="http://www.w3.org/2000/svg" xml:space="preserve" width="2480px" height="1748px" version="1.1" style="shape-rendering:geometricPrecision; text-rendering:geometricPrecision; image-rendering:optimizeQuality; fill-rule:evenodd; clip-rule:evenodd" viewBox="0 0 24800 17478" xmlns:xlink="http://www.w3.org/1999/xlink">
  <defs>
    <style type="text/css">
      <![CDATA[
    .fil1 {fill:#899197}
    .fil0 {fill:#EA8831}
    .fil2 {fill:#899197;fill-rule:nonzero}
   ]]>
    </style>
  </defs>
  <g id="Layer_x0020_1">
    <metadata id="CorelCorpID_0Corel-Layer" />
    <path class="fil0" d="M23343 1732c-871,-435 -1847,-109 -2489,567 -240,252 -3827,6403 -4110,6888 -527,900 -1251,2016 -225,3160 859,959 2296,714 3031,-146 305,-357 3994,-6635 4516,-7565 579,-1031 377,-2353 -723,-2904z" />
    <path class="fil0" d="M15788 1857c-860,524 -4670,7217 -5158,8258 -644,1375 290,2792 1623,2847 1564,64 2051,-1301 2642,-2248 814,-1304 1892,-3201 2705,-4586 706,-1201 1624,-2247 1009,-3534 -513,-1071 -1846,-1330 -2821,-737z" />
    <path class="fil1" d="M933 4938c222,364 403,686 620,1045 523,864 3318,5919 3744,6232 -144,-417 -9,-457 108,-1286 122,-873 1077,-2775 1485,-3706 -659,-954 -2097,-3581 -2789,-4745 -599,-826 -1735,-1215 -2668,-727 -247,130 -299,193 -469,364 -834,841 -575,1932 -31,2823z" />
    <!-- <polygon class="fil2" points="2094,14234 2290,14234 2886,15624 3491,14234 3687,14234 2904,16029 2864,16029 " />
    <path id="1" class="fil2" d="M4439 14157c39,0 71,14 99,42 27,27 41,61 41,99 0,39 -14,72 -41,100 -28,28 -60,41 -99,41 -39,0 -71,-13 -99,-41 -27,-28 -41,-61 -41,-100 0,-38 14,-72 41,-99 28,-28 60,-42 99,-42zm-85 545l170 0 0 1327 -170 0 0 -1327z" />
    <path id="2" class="fil2" d="M6422 15589l145 76c-48,92 -103,167 -165,223 -62,57 -131,100 -209,129 -78,30 -165,45 -263,45 -218,0 -387,-71 -510,-213 -122,-142 -183,-301 -183,-480 0,-168 52,-318 156,-449 131,-167 307,-251 527,-251 227,0 409,86 544,257 97,121 146,272 148,453l-1200 0c3,154 53,280 148,378 96,98 214,147 355,147 67,0 134,-12 198,-35 64,-23 119,-54 164,-93 45,-39 93,-101 145,-187zm2 -357c-23,-92 -56,-164 -100,-219 -44,-54 -102,-98 -174,-131 -72,-34 -148,-50 -227,-50 -131,0 -244,41 -338,125 -69,61 -121,153 -156,275l995 0z" />
    <polygon id="3" class="fil2" points="7496,14207 7666,14207 7666,14702 7936,14702 7936,14849 7666,14849 7666,16029 7496,16029 7496,14849 7263,14849 7263,14702 7496,14702 " />
    <path id="4" class="fil2" d="M8617 14702l170 0 0 238c69,-91 145,-159 228,-204 83,-44 173,-67 271,-67 100,0 188,25 265,76 77,50 134,118 171,203 37,85 55,218 55,399l0 682 -170 0 0 -632c0,-153 -7,-255 -19,-306 -21,-88 -60,-153 -116,-198 -56,-44 -129,-66 -220,-66 -104,0 -196,34 -278,102 -82,68 -136,153 -162,254 -16,65 -25,185 -25,360l0 486 -170 0 0 -1327z" />
    <path id="5" class="fil2" d="M11886 14702l0 1327 -170 0 0 -228c-72,87 -152,152 -241,196 -88,43 -186,65 -291,65 -188,0 -348,-68 -481,-204 -133,-136 -199,-301 -199,-496 0,-191 67,-354 201,-489 134,-136 295,-204 484,-204 108,0 207,23 295,69 88,46 165,115 232,208l0 -244 170 0zm-684 132c-95,0 -183,24 -263,70 -80,47 -144,112 -191,196 -48,84 -72,173 -72,268 0,92 24,182 72,267 48,85 112,151 193,198 81,47 167,71 260,71 93,0 181,-23 265,-70 84,-47 148,-111 193,-191 45,-80 67,-170 67,-271 0,-153 -50,-281 -151,-384 -101,-102 -225,-154 -373,-154z" />
    <path id="6" class="fil2" d="M12694 14702l170 0 0 229c59,-84 120,-146 183,-185 86,-51 177,-77 272,-77 65,0 125,13 183,38 58,25 105,59 142,101 37,42 68,102 95,180 57,-104 128,-183 213,-237 86,-55 177,-82 276,-82 91,0 172,24 242,70 71,46 123,111 157,194 34,82 51,207 51,372l0 724 -175 0 0 -724c0,-142 -10,-240 -30,-293 -20,-54 -55,-97 -104,-129 -49,-32 -108,-49 -176,-49 -82,0 -158,25 -227,74 -68,48 -118,113 -150,195 -32,81 -48,217 -48,407l0 519 -169 0 0 -679c0,-160 -11,-269 -30,-326 -20,-58 -55,-103 -105,-138 -50,-35 -108,-52 -177,-52 -79,0 -153,24 -221,72 -69,47 -120,111 -153,192 -33,80 -49,203 -49,369l0 562 -170 0 0 -1327z" />
    <path id="7" class="fil2" d="M16090 14669c205,0 374,74 509,222 123,134 184,294 184,478 0,185 -65,347 -194,485 -130,138 -296,208 -499,208 -204,0 -371,-70 -500,-208 -130,-138 -195,-300 -195,-485 0,-183 62,-342 184,-477 135,-149 305,-223 511,-223zm-1 168c-142,0 -264,52 -366,156 -102,105 -153,232 -153,380 0,95 24,185 70,267 47,83 110,147 189,192 78,45 166,67 260,67 95,0 182,-22 261,-67 79,-45 142,-109 188,-192 46,-82 70,-172 70,-267 0,-148 -51,-275 -154,-380 -102,-104 -224,-156 -365,-156z" />
    <path id="8" class="fil2" d="M17532 16029l0 -1840 170 0 0 743c72,-88 152,-154 240,-197 89,-44 186,-66 292,-66 187,0 348,68 481,204 133,136 199,301 199,495 0,191 -67,355 -201,490 -134,136 -295,204 -484,204 -108,0 -206,-23 -294,-69 -88,-46 -166,-115 -233,-208l0 244 -170 0zm684 -132c95,0 183,-24 263,-70 80,-47 144,-112 192,-196 47,-84 71,-173 71,-267 0,-94 -24,-183 -72,-268 -48,-85 -112,-151 -193,-198 -81,-47 -167,-71 -258,-71 -93,0 -182,24 -266,71 -84,47 -149,111 -194,191 -45,80 -67,170 -67,270 0,153 50,281 152,383 100,103 225,155 372,155z" />
    <path id="9" class="fil2" d="M19706 14157c39,0 72,14 100,42 27,27 41,61 41,99 0,39 -14,72 -41,100 -28,28 -61,41 -100,41 -38,0 -70,-13 -98,-41 -27,-28 -41,-61 -41,-100 0,-38 14,-72 41,-99 28,-28 60,-42 98,-42zm-84 545l170 0 0 1327 -170 0 0 -1327z" />
    <polygon id="10" class="fil2" points="20544,14189 20714,14189 20714,16029 20544,16029 " />
    <path id="11" class="fil2" d="M22612 15589l145 76c-48,92 -103,167 -165,223 -62,57 -131,100 -209,129 -78,30 -165,45 -263,45 -217,0 -387,-71 -510,-213 -122,-142 -183,-301 -183,-480 0,-168 52,-318 156,-449 131,-167 307,-251 527,-251 227,0 409,86 544,257 97,121 146,272 148,453l-1200 0c3,154 53,280 148,378 96,98 214,147 355,147 67,0 134,-12 198,-35 64,-23 119,-54 164,-93 45,-39 93,-101 145,-187zm2 -357c-23,-92 -56,-164 -100,-219 -44,-54 -102,-98 -174,-131 -72,-34 -148,-50 -227,-50 -131,0 -244,41 -338,125 -69,61 -121,153 -156,275l995 0z" /> -->
    <path class="fil0" d="M6925 7160c-326,611 -1835,2670 -1958,3542 -117,830 186,1096 330,1513 269,464 1172,859 1948,721 769,-137 1251,-669 1557,-1192l4064 -6892c679,-1163 684,-2565 -686,-3163 -927,-405 -1971,2 -2546,807 -461,645 -2384,4054 -2709,4664z" />
  </g>
</svg>
