<svg xmlns="http://www.w3.org/2000/svg" xmlns:xlink="http://www.w3.org/1999/xlink" version="1.1" width="128" height="75" viewBox="0 0 128 75" xml:space="preserve">
  <g transform="matrix(1.09 0 0 1.09 64 37.5)" id="rOwrgC27wOK4LmeYELG_S">
    <g style="" vector-effect="non-scaling-stroke">
      <g transform="matrix(1 0 0 1 0.3 -22.18)" id="s4Y12F0xsDm6rxxWtyOkv">
        <path style="stroke: none; stroke-width: 1; stroke-dasharray: none; stroke-linecap: butt; stroke-dashoffset: 0; stroke-linejoin: miter; stroke-miterlimit: 4; fill: rgb(0,145,140); fill-rule: nonzero; opacity: 1;" vector-effect="non-scaling-stroke" transform=" translate(-64.08, -14.62)" d="M 121.874 26.471 C 110.207 12.277 88.693 2.765 64.079 2.765 C 39.46999999999999 2.765 17.956999999999994 12.278 6.287999999999997 26.471 L 51.9 26.471 C 58.966 18.4 71.989 12.978 86.889 12.978 C 101.784 12.978 114.808 18.399 121.874 26.471 z" stroke-linecap="round" />
      </g>
      <g transform="matrix(1 0 0 1 0.22 22.18)" id="VKKKfYdFt6UeWEvAXB0la">
        <path style="stroke: none; stroke-width: 1; stroke-dasharray: none; stroke-linecap: butt; stroke-dashoffset: 0; stroke-linejoin: miter; stroke-miterlimit: 4; fill: rgb(213,132,49); fill-rule: nonzero; opacity: 1;" vector-effect="non-scaling-stroke" transform=" translate(-64, -58.98)" d="M 6.2 47.126 C 17.873 61.312999999999995 39.385000000000005 70.832 63.995000000000005 70.832 C 88.599 70.832 110.114 61.312 121.791 47.12599999999999 L 76.173 47.12599999999999 C 69.11 55.198 56.084 60.612 41.19 60.612 C 26.289 60.612 13.264 55.198 6.2 47.126 z" stroke-linecap="round" />
      </g>
      <g transform="matrix(1 0 0 1 -0.31 -0.46)" id="ZVwMulrr6bZRBfP96WtE8">
        <path style="stroke: none; stroke-width: 1; stroke-dasharray: none; stroke-linecap: butt; stroke-dashoffset: 0; stroke-linejoin: miter; stroke-miterlimit: 4; fill: rgb(0,145,140); fill-rule: nonzero; opacity: 1;" vector-effect="non-scaling-stroke" transform=" translate(-63.47, -36.34)" d="M 28.111 32.937 L 23.34 32.937 C 22.133 32.937 20.938 33.355999999999995 20.41 34.132 C 19.883 34.905 16.754 39.476 16.754 39.476 C 16.754 39.476 13.447000000000001 34.72 13.038 34.132 C 12.631 33.544 11.164 32.937 9.463000000000001 32.937 C 7.765000000000001 32.937 5.6800000000000015 32.937 5.6800000000000015 32.937 C 5.6800000000000015 32.937 11.984000000000002 40.451 12.318000000000001 40.846999999999994 C 12.652000000000001 41.24299999999999 14.292000000000002 42.032999999999994 16.594 42.032999999999994 C 18.896 42.032999999999994 20.41 41.620999999999995 21.048000000000002 40.846999999999994 C 21.681 40.080999999999996 25.164 35.846999999999994 25.164 35.846999999999994 C 25.164 35.846999999999994 25.164 40.282 25.164 40.846999999999994 C 25.164 41.413 26.139000000000003 42.032999999999994 28.111 42.032999999999994 C 30.080000000000002 42.032999999999994 31.401 41.431 31.401 40.846999999999994 L 31.401 34.13199999999999 C 31.401 33.517 30.249 32.937 28.111 32.937 z M 113.459 39.778 C 112.251 39.778 111.553 39.367 111.553 38.237 C 111.553 37.112 111.553 34.132000000000005 111.553 34.132000000000005 C 111.553 33.507000000000005 110.375 32.937000000000005 108.419 32.937000000000005 C 106.468 32.937000000000005 105.313 33.028000000000006 105.313 34.132000000000005 C 105.313 35.236000000000004 105.313 39.96000000000001 105.313 39.96000000000001 C 105.313 39.96000000000001 96.089 39.96000000000001 95.04 39.96000000000001 C 93.985 39.96000000000001 93.536 39.827000000000005 93.536 38.99300000000001 C 93.536 38.15700000000001 93.536 38.15700000000001 93.536 38.15700000000001 C 93.536 38.15700000000001 100.075 38.15700000000001 101.205 38.15700000000001 C 102.33 38.15700000000001 103.274 38.21000000000001 103.274 37.26400000000001 C 103.274 36.31800000000001 103.274 36.31900000000001 103.274 36.31900000000001 C 103.274 36.31900000000001 96.089 36.31900000000001 95.04 36.31900000000001 C 93.985 36.31900000000001 93.536 36.17800000000001 93.536 35.53500000000001 C 93.536 34.88800000000001 93.536 34.88800000000001 93.536 34.88800000000001 C 93.536 34.88800000000001 100.748 34.88800000000001 101.803 34.88800000000001 C 102.85799999999999 34.88800000000001 104.023 34.54400000000001 104.023 34.13200000000001 C 104.023 33.71800000000001 104.023 32.93700000000001 104.023 32.93700000000001 C 104.023 32.93700000000001 93.356 32.93700000000001 80.393 32.93700000000001 C 79.501 32.93700000000001 79.501 32.03700000000001 79.501 32.03700000000001 L 79.501 31.83800000000001 C 79.501 31.28500000000001 78.4 30.655000000000012 76.59 30.655000000000012 C 74.793 30.655000000000012 73.256 31.109000000000012 73.256 31.83800000000001 L 73.256 32.079000000000015 L 73.236 32.03700000000001 C 73.236 32.03700000000001 73.236 32.93700000000001 72.34100000000001 32.93700000000001 L 64.86300000000001 32.93700000000001 C 63.97300000000001 32.93700000000001 63.97300000000001 32.03700000000001 63.97300000000001 32.03700000000001 L 63.94600000000001 32.079000000000015 L 63.94600000000001 31.838000000000015 C 63.94600000000001 31.285000000000014 62.84600000000001 30.655000000000015 61.042000000000016 30.655000000000015 C 59.238000000000014 30.655000000000015 57.701000000000015 31.109000000000016 57.701000000000015 31.838000000000015 L 57.701000000000015 32.03700000000001 C 57.701000000000015 32.03700000000001 57.701000000000015 32.93700000000001 56.81200000000001 32.93700000000001 L 34.738 32.93700000000001 C 33.609 32.93700000000001 33.018 33.32700000000001 33.018 34.13200000000001 C 33.018 34.722000000000016 33.018 40.84700000000001 33.018 40.84700000000001 C 33.018 41.43100000000001 33.759 42.03300000000001 35.564 42.03300000000001 L 47.887 42.03300000000001 C 48.838 42.03300000000001 50.051 41.449000000000005 50.051 40.82200000000001 C 50.051 40.20100000000001 50.051 39.96100000000001 50.051 39.96100000000001 C 50.051 39.96100000000001 41.559 39.96100000000001 40.702 39.96100000000001 C 39.845 39.96100000000001 39.257999999999996 39.762000000000015 39.257999999999996 38.95900000000001 C 39.257999999999996 38.15800000000001 39.257999999999996 38.15800000000001 39.257999999999996 38.15800000000001 C 39.257999999999996 38.15800000000001 45.988 38.15800000000001 46.88699999999999 38.15800000000001 C 47.794 38.15800000000001 48.995999999999995 38.17600000000001 48.995999999999995 37.24800000000001 C 48.995999999999995 36.320000000000014 48.995999999999995 36.320000000000014 48.995999999999995 36.320000000000014 C 48.995999999999995 36.320000000000014 41.605999999999995 36.320000000000014 40.74999999999999 36.320000000000014 C 39.89399999999999 36.320000000000014 39.257999999999996 36.259000000000015 39.257999999999996 35.722000000000016 C 39.257999999999996 35.19000000000001 39.257999999999996 35.19000000000001 39.257999999999996 35.19000000000001 C 39.257999999999996 35.19000000000001 53.230999999999995 35.19000000000001 54.80799999999999 35.19000000000001 C 56.38699999999999 35.19000000000001 57.70099999999999 35.68200000000001 57.70099999999999 37.265000000000015 L 57.70099999999999 40.847000000000016 C 57.70099999999999 41.40000000000001 59.172999999999995 42.033000000000015 60.900999999999996 42.033000000000015 C 62.629999999999995 42.033000000000015 63.946 41.42500000000002 63.946 40.847000000000016 L 63.946 37.265000000000015 C 63.946 36.362000000000016 64.737 35.19000000000001 66.467 35.19000000000001 L 70.752 35.19000000000001 C 72.176 35.19000000000001 73.25399999999999 35.83700000000001 73.25399999999999 37.18800000000001 L 73.25399999999999 40.84700000000001 C 73.25399999999999 41.400000000000006 74.359 42.03300000000001 76.166 42.03300000000001 C 77.97 42.03300000000001 79.499 41.57600000000001 79.499 40.84700000000001 L 79.499 37.18800000000001 C 79.499 36.287000000000006 80.672 35.19000000000001 81.72699999999999 35.19000000000001 L 84.96099999999998 35.19000000000001 C 86.08599999999998 35.19000000000001 87.29299999999998 35.91600000000001 87.29299999999998 37.265000000000015 L 87.29299999999998 40.847000000000016 C 87.29299999999998 41.40000000000001 87.81399999999998 42.033000000000015 89.16999999999997 42.033000000000015 L 118.79399999999997 42.033000000000015 C 120.14999999999996 42.033000000000015 121.25199999999997 41.50200000000002 121.25199999999997 40.847000000000016 C 121.25199999999997 40.201000000000015 121.25199999999997 39.77900000000002 121.25199999999997 39.77900000000002 C 121.25199999999997 39.77900000000002 114.659 39.778 113.459 39.778 z" stroke-linecap="round" />
      </g>
    </g>
  </g>
</svg>
